HIERARCHY
ROOT Hips
{
	OFFSET 0.00000 0.00000 0.00000
	CHANNELS 6 Xposition Yposition Zposition Zrotation Yrotation Xrotation 
	JOINT LHipJoint
	{
		OFFSET 0 0 0
		CHANNELS 3 Zrotation Yrotation Xrotation
		JOINT LeftHip
		{
			OFFSET 1.75344 -1.53157 0.77399
			CHANNELS 3 Zrotation Yrotation Xrotation
			JOINT LeftKnee
			{
				OFFSET 2.25415 -6.19323 0.00000
				CHANNELS 3 Zrotation Yrotation Xrotation
				JOINT LeftAnkle
				{
					OFFSET 2.30342 -6.32861 0.00000
					CHANNELS 3 Zrotation Yrotation Xrotation
					JOINT LeftToe
					{
						OFFSET 0.10958 -0.30108 1.49206
						CHANNELS 3 Zrotation Yrotation Xrotation
						End Site
						{
							OFFSET 0.00000 -0.00000 0.77783
						}
					}
				}
			}
		}
	}
	JOINT RHipJoint
	{
		OFFSET 0 0 0
		CHANNELS 3 Zrotation Yrotation Xrotation
		JOINT RightHip
		{
			OFFSET -1.81912 -1.53156 0.77399
			CHANNELS 3 Zrotation Yrotation Xrotation
			JOINT RightKnee
			{
				OFFSET -2.22882 -6.12365 0.00000
				CHANNELS 3 Zrotation Yrotation Xrotation
				JOINT RightAnkle
				{
					OFFSET -2.21943 -6.09785 0.00000
					CHANNELS 3 Zrotation Yrotation Xrotation
					JOINT RightToe
					{
						OFFSET -0.18931 -0.52012 1.59379
						CHANNELS 3 Zrotation Yrotation Xrotation
						End Site
						{
							OFFSET -0.00000 -0.00000 0.84686
						}
					}
				}
			}
		}
	}
	JOINT lowerback
	{
		OFFSET 0 0 0
		CHANNELS 3 Zrotation Yrotation Xrotation
		JOINT Chest
		{
			OFFSET -0.00200 1.66634 -0.14248
			CHANNELS 3 Zrotation Yrotation Xrotation
			JOINT Chest2
			{
				OFFSET -0.00875 1.64542 0.09514
				CHANNELS 3 Zrotation Yrotation Xrotation
				JOINT lowerneck
				{
					OFFSET 0 0 0
					CHANNELS 3 Zrotation Yrotation Xrotation
					JOINT Neck
					{
						OFFSET 0.02257 1.59605 0.00839
						CHANNELS 3 Zrotation Yrotation Xrotation
						JOINT Head
						{
							OFFSET -0.10214 1.57530 -0.23335
							CHANNELS 3 Zrotation Yrotation Xrotation
							End Site
							{
								OFFSET -0.03588 1.60717 -0.08062
							}
						}
					}
				}
				JOINT LeftCollar
				{
					OFFSET 0 0 0
					CHANNELS 3 Zrotation Yrotation Xrotation
					JOINT LeftShoulder
					{
						OFFSET 2.54983 1.10186 0.40078
CHANNELS 3 Zrotation Xrotation Yrotation
						JOINT LeftElbow
						{
OFFSET 0 -4.288400 0.000000
CHANNELS 3 Zrotation Xrotation Yrotation
							JOINT LeftWrist
							{
OFFSET 0 -3.065520 -0.000000
CHANNELS 3 Zrotation Xrotation Yrotation
								JOINT lhand
								{
									OFFSET 0 0 0
CHANNELS 3 Zrotation Xrotation Yrotation
									JOINT LFingers
									{
OFFSET 0 -0.753040 0.000000
CHANNELS 3 Zrotation Xrotation Yrotation
										End Site
										{
OFFSET 0 -0.607120 0.000000
										}
									}
								}
								JOINT LThumb
								{
OFFSET 0 0.000000 0.000000
CHANNELS 3 Zrotation Xrotation Yrotation
									End Site
									{
OFFSET 0 -0.616390 0.616390
									}
								}
							}
						}
					}
				}
				JOINT RightCollar
				{
					OFFSET 0 0 0
					CHANNELS 3 Zrotation Yrotation Xrotation
					JOINT RightShoulder
					{
						OFFSET -2.60909 1.35448 0.21802
CHANNELS 3 Zrotation Xrotation Yrotation
						JOINT RightElbow
						{
OFFSET 0 -4.521720 -0.000000
CHANNELS 3 Zrotation Xrotation Yrotation
							JOINT RightWrist
							{
OFFSET 0 -2.891400 0.000000
CHANNELS 3 Zrotation Xrotation Yrotation
								JOINT rhand
								{
									OFFSET 0 0 0
CHANNELS 3 Zrotation Xrotation Yrotation
									JOINT RFingers
									{
OFFSET 0 -0.680540 0.000000
CHANNELS 3 Zrotation Xrotation Yrotation
										End Site
										{
OFFSET 0 -0.548670 0.000000
										}
									}
								}
								JOINT RThumb
								{
OFFSET 0 0.000000 0.000000
CHANNELS 3 Zrotation Xrotation Yrotation
									End Site
									{
OFFSET 0 -0.557050 0.557050
									}
								}
							}
						}
					}
				}
			}
		}
	}
}
MOTION
Frames: 15
Frame Time: .0083333
8.7343 15.5023 19.0465 -181.0110 -8.0391 191.2850 0.0000 0.0000 0.0000 -20.2700 -9.0904 -18.3971 6.2969 14.7100 46.1619 -0.1062 -9.6903 -4.7658 0.9442 -6.1887 -17.3328 0.0000 0.0000 0.0000 23.3797 3.3373 -15.7524 -5.9709 -14.4001 44.8648 0.2688 -10.1862 -8.5251 -0.4984 4.5259 -12.5611 2.5423 2.8300 11.4394 -0.4752 4.1254 -4.7120 -2.8023 1.7365 -11.3343 -2.4528 -0.7315 -5.2625 0.5469 -0.9452 -2.1374 0.5525 -0.4987 0.2252 -0.0000 -0.0000 0.0000 45.197 -34.2412 -53.9331 32.6940 -43.0935 13.2126 -6.6384 8.9886 46.0603 0.0 0.0 0.0 -7.1250 0.0 0.0 -21.3238 -13.6017 -27.4441 -0.0000 -0.0000 0.0000 -70.2821 -39.5904 25.3161 -35.2185 -44.9675 -14.9676 8.2169 -8.5415 61.6716 0.0 0.0 0.0 7.1250 0.0 -0.0 99.5004 69.4539 -78.4815
8.7326 15.7452 18.8659 -181.0700 -9.1315 190.1020 0.0000 0.0000 0.0000 -20.3457 -9.3820 -15.8837 5.7537 14.1853 43.9849 -0.1727 -7.7252 0.2792 0.8957 -6.0322 -16.8778 0.0000 0.0000 0.0000 23.5730 3.2095 -13.0029 -5.3919 -13.8119 42.4893 0.4449 -11.7323 -3.8368 -0.7028 5.3584 -14.9336 2.5021 2.8347 11.0865 -0.4717 4.1060 -5.0421 -2.7618 1.7165 -11.4993 -2.1245 -0.5940 -4.3650 0.5360 -0.7242 -0.2374 0.5013 -0.3706 0.6575 -0.0000 -0.0000 0.0000 41.8581 -32.7012 -56.2434 31.7864 -42.3763 12.5967 -6.8245 10.2983 45.8569 0.0 0.0 0.0 -7.1250 0.0 0.0 -21.3991 -13.4006 -27.5011 -0.0000 -0.0000 0.0000 -68.7471 -37.3444 29.9165 -35.3157 -45.0363 -15.0363 7.6407 -7.3571 61.9045 0.0 0.0 0.0 7.1250 0.0 -0.0 100.0439 69.6097 -79.2779
8.7305 16.0117 18.6834 -181.2290 -10.2731 189.0120 0.0000 0.0000 0.0000 -20.5721 -9.8289 -13.4424 5.2359 13.6447 41.8323 -0.0679 -5.3597 4.8527 0.9691 -6.2676 -17.5628 0.0000 0.0000 0.0000 23.6284 3.6805 -10.5555 -4.8852 -13.2533 40.3242 0.4942 -14.1478 2.1914 -0.3741 3.9282 -10.8748 2.3521 2.8225 10.5170 -0.5015 4.0389 -5.1725 -2.6645 1.6957 -11.3152 -1.7109 -0.5028 -3.5613 0.4307 -0.6064 1.3457 0.4048 -0.3083 1.0108 -0.0000 -0.0000 0.0000 38.5881 -31.2671 -57.9393 30.7575 -41.5339 11.9087 -7.4616 11.3534 45.668 0.0 0.0 0.0 -7.1250 0.0 0.0 -21.6753 -13.1932 -27.8503 -0.0000 -0.0000 0.0000 -67.2499 -34.9214 33.7312 -35.4989 -45.1651 -15.166 7.2391 -5.764 61.41 0.0 0.0 0.0 7.1250 0.0 -0.0 98.6808 69.7778 -77.9209
8.7289 16.2602 18.5133 -181.4450 -11.5326 187.9690 0.0000 0.0000 0.0000 -20.8934 -10.4301 -11.2098 4.7643 13.1134 39.7944 0.1653 -2.7047 9.1722 0.9082 -6.0728 -16.9957 0.0000 0.0000 0.0000 23.6685 4.2047 -8.2907 -4.4670 -12.7571 38.4660 0.3808 -16.3793 7.1200 -0.4392 4.2525 -11.7880 2.1624 2.7523 10.2201 -0.5824 3.8939 -5.2761 -2.6030 1.6353 -11.2677 -1.3846 -0.3375 -3.0032 0.4858 -0.4093 2.7723 0.3733 -0.2117 1.3615 -0.0000 -0.0000 0.0000 35.3023 -29.6808 -59.0642 29.6819 -40.6192 11.202 -7.7413 12.026 45.2801 0.0 0.0 0.0 -7.1250 0.0 0.0 -21.7891 -12.8157 -27.9141 -0.0000 -0.0000 0.0000 -65.7662 -32.4774 37.1139 -35.6792 -45.2911 -15.2941 7.0347 -3.9949 60.5648 0.0 0.0 0.0 7.1250 0.0 -0.0 96.3775 69.8937 -75.472
8.7281 16.5036 18.3510 -181.6700 -12.9571 186.9820 0.0000 0.0000 0.0000 -21.2511 -11.0825 -9.1972 4.3237 12.5792 37.8129 0.4797 -0.1002 13.1231 0.7957 -5.6937 -15.8981 0.0000 0.0000 0.0000 23.7058 4.7892 -6.3500 -4.1459 -12.3520 36.9889 0.0626 -18.0221 12.0867 -0.5130 4.5907 -12.7448 1.9994 2.6484 9.9773 -0.6774 3.7145 -5.2128 -2.5632 1.5647 -11.0634 -1.2441 -0.1310 -2.7903 0.6858 -0.1635 3.8969 0.4193 -0.0917 1.6815 0.0000 0.0000 0.0000 32.0428 -28.2732 -59.5049 28.5761 -39.6412 10.4892 -8.3066 12.6566 44.7442 0.0 0.0 0.0 -7.1250 0.0 0.0 -22.0296 -12.2887 -28.1194 0.0000 0.0000 0.0000 -64.6411 -30.0315 39.8405 -35.8642 -45.4194 -15.4257 7.1266 -2.508 59.9011 0.0 0.0 0.0 7.1250 0.0 -0.0 94.6038 69.8825 -73.4967
8.7297 16.7422 18.1938 -181.8770 -14.4293 186.2220 0.0000 0.0000 0.0000 -21.5741 -11.7884 -7.5466 3.9220 12.0559 35.9300 0.8037 2.4854 16.2797 0.5284 -4.6581 -12.9360 0.0000 0.0000 0.0000 23.7024 5.5466 -4.9225 -3.9189 -12.0517 35.9153 -0.3861 -19.3549 16.7189 -0.1625 2.5970 -7.1586 1.7400 2.5538 9.5863 -0.7048 3.5411 -5.0539 -2.3866 1.5131 -10.6732 -1.3649 0.0704 -2.9463 0.8759 0.0891 4.7913 0.5088 0.0296 1.9971 0.0000 0.0000 0.0000 28.6233 -27.041 -59.2669 27.3481 -38.5091 9.7151 -9.3316 13.7847 44.2755 0.0 0.0 0.0 -7.1250 0.0 0.0 -22.4809 -11.8142 -28.6469 0.0000 0.0000 0.0000 -63.9063 -27.428 42.2143 -36.1957 -45.6473 -15.6622 6.5729 -0.719 59.3647 0.0 0.0 0.0 7.1250 0.0 -0.0 93.0306 70.0616 -71.9893
8.7351 16.9667 18.0454 -182.0040 -15.9448 185.6710 0.0000 0.0000 0.0000 -21.7941 -12.5127 -6.2894 3.5569 11.5462 34.1450 1.1345 5.1619 19.0791 0.2778 -3.3901 -9.3669 0.0000 0.0000 0.0000 23.7685 6.3040 -3.9939 -3.7574 -11.8303 35.1344 -0.9394 -21.5107 21.5969 -0.3056 -3.5544 9.8262 1.4393 2.4413 9.2287 -0.6662 3.3462 -4.9508 -2.1186 1.4513 -10.3730 -1.5472 0.2345 -3.3212 0.9123 0.3063 5.6531 0.5628 0.1284 2.3459 0.0000 -0.0000 0.0000 25.3033 -25.6117 -58.5754 26.1816 -37.3875 8.9977 -10.1422 15.1775 43.7095 0.0 0.0 0.0 -7.1250 0.0 0.0 -22.8405 -11.2615 -29.0134 0.0000 -0.0000 0.0000 -63.2446 -24.654 44.618 -36.6744 -45.9714 -16.0055 6.2706 0.542 58.7601 0.0 0.0 0.0 7.1250 0.0 -0.0 91.3064 70.146 -70.2285
8.7396 17.1829 17.9033 -182.2080 -17.6682 185.3230 0.0000 0.0000 0.0000 -22.0905 -13.2546 -5.3858 3.2355 11.0669 32.5058 1.5083 7.5847 21.9776 0.1099 -2.1372 -5.8849 0.0000 0.0000 0.0000 23.7646 6.8743 -3.5362 -3.6423 -11.6685 34.5692 -1.1498 -21.5929 22.9136 -0.4224 -4.1716 11.5600 1.1617 2.2849 8.9113 -0.7063 3.0889 -4.9148 -1.9435 1.3494 -10.1665 -1.3328 0.3436 -3.5955 0.5576 0.4531 6.3273 0.4216 0.1888 2.6191 -0.0000 0.0000 0.0000 22.3056 -24.0805 -57.7307 25.0465 -36.2515 8.3174 -10.5896 16.7117 43.1797 0.0 0.0 0.0 -7.1250 0.0 0.0 -23.0418 -10.7548 -29.1554 -0.0000 0.0000 0.0000 -62.4799 -21.7461 46.9378 -37.1443 -46.284 -16.3442 6.4757 1.0178 58.5033 0.0 0.0 0.0 7.1250 0.0 -0.0 90.6580 70.0678 -69.4397
8.7431 17.3787 17.7689 -182.1700 -19.4437 185.0460 0.0000 0.0000 0.0000 -22.1310 -13.8541 -4.8587 2.9494 10.6126 30.9843 1.6225 9.7216 22.8608 0.1162 -2.1980 -6.0532 0.0000 0.0000 0.0000 23.9698 7.2802 -3.4639 -3.5465 -11.5312 34.0930 -1.7624 -20.1745 25.9151 -0.3703 -3.9085 10.8193 1.2893 2.1435 8.6195 -0.7951 2.9032 -4.8808 -2.0629 1.2522 -9.9510 -1.2018 0.4356 -3.8624 0.3534 0.5797 6.7518 0.3407 0.2442 2.8109 -0.0000 0.0000 0.0000 19.6263 -22.646 -56.7787 23.9284 -35.0884 7.6654 -11.3907 19.2146 43.0597 0.0 0.0 0.0 -7.1250 0.0 0.0 -23.4026 -10.6303 -29.6531 -0.0000 0.0000 0.0000 -61.598 -18.7116 48.7152 -37.3574 -46.4239 -16.4984 5.0914 2.8189 58.2059 0.0 0.0 0.0 7.1250 0.0 -0.0 89.4664 70.5086 -68.7059
8.7479 17.5521 17.6421 -181.8140 -21.2127 184.7850 0.0000 0.0000 0.0000 -21.8447 -14.2877 -4.7927 2.7175 10.2231 29.7022 1.4769 11.0206 21.9524 0.2105 -2.9538 -8.1502 0.0000 0.0000 0.0000 24.4447 7.5803 -3.7372 -3.4722 -11.4228 33.7194 -2.2355 -18.4486 28.0353 -0.2076 -2.9339 8.0949 1.8047 2.0181 8.4277 -0.8608 2.7933 -4.8433 -2.3933 1.1668 -9.7730 -1.3430 0.5218 -4.3476 0.4651 0.7038 7.0895 0.4098 0.3048 3.0155 -0.0000 -0.0000 0.0000 17.0323 -21.4055 -55.5298 22.6903 -33.7484 6.9655 -12.9771 23.2139 43.31 0.0 0.0 0.0 -7.1250 0.0 0.0 -24.1070 -10.856 -30.7878 -0.0000 -0.0000 0.0000 -60.7686 -15.5944 50.1545 -37.3330 -46.4079 -16.4807 3.9919 4.457 57.6886 0.0 0.0 0.0 7.1250 0.0 -0.0 87.7044 70.8401 -67.2575
8.7493 17.7310 17.5171 -181.6470 -22.9958 184.9280 0.0000 0.0000 0.0000 -21.7279 -14.6522 -5.2142 2.4985 9.8352 28.4446 1.3081 11.3043 20.7685 0.4165 -4.1423 -11.4773 0.0000 0.0000 0.0000 24.5936 7.7857 -4.5605 -3.4106 -11.3318 33.4072 -2.0277 -18.5269 26.9117 -0.1198 -2.2318 6.1467 2.0432 1.8589 7.9887 -0.8473 2.5987 -4.8571 -2.4618 1.0617 -9.5281 -1.3852 0.6984 -4.8365 0.3039 0.9656 7.3370 0.3797 0.4273 3.1913 -0.0000 -0.0000 0.0000 14.1508 -20.4818 -53.7056 21.0592 -31.8973 6.0812 -14.3565 28.1239 43.8246 0.0 0.0 0.0 -7.1250 0.0 0.0 -24.7045 -11.3453 -31.8647 -0.0000 -0.0000 0.0000 -60.2175 -12.6803 51.7377 -37.1079 -46.2599 -16.3179 5.2884 4.1534 57.7167 0.0 0.0 0.0 7.1250 0.0 -0.0 88.1597 70.4094 -67.2108
8.7630 17.8879 17.4164 -181.2200 -24.7030 185.2390 0.0000 0.0000 0.0000 -21.2428 -14.8177 -6.3038 2.2944 9.4541 27.2263 1.1621 11.6104 19.7224 0.5113 -4.5833 -12.7238 0.0000 0.0000 0.0000 24.9880 8.3910 -5.8353 -3.3502 -11.2415 33.0986 -1.6267 -20.4531 25.2425 -0.2785 -3.3945 9.3791 2.3657 1.6988 7.7534 -0.6968 2.4233 -5.0404 -2.4494 0.9545 -9.5941 -1.2148 0.9350 -5.1960 -0.1457 1.3111 7.5471 0.2221 0.5842 3.3334 0.0000 -0.0000 0.0000 11.6278 -19.5083 -51.9223 19.5186 -30.058 5.2881 -15.0263 33.0 44.5947 0.0 0.0 0.0 -7.1250 0.0 0.0 -24.9791 -12.0739 -32.5284 0.0000 -0.0000 0.0000 -59.6464 -9.7601 53.2935 -36.7693 -46.035 -16.0738 6.5241 4.2415 58.1112 0.0 0.0 0.0 7.1250 0.0 -0.0 89.6040 70.0289 -68.2701
8.7697 18.0348 17.2957 -181.4480 -26.5688 185.3550 0.0000 0.0000 0.0000 -21.7021 -14.6461 -6.8189 2.0858 9.0427 25.9288 1.0510 12.1220 18.9683 0.5813 -4.8822 -13.5728 0.0000 0.0000 0.0000 24.7442 8.5968 -6.5327 -3.2686 -11.1176 32.6777 -1.3250 -21.8393 24.0459 -0.2251 -3.0541 8.4293 2.2487 1.5402 7.7677 -0.8392 2.1838 -5.0630 -2.5000 0.8394 -9.6396 -0.7569 1.0960 -5.6202 -0.6194 1.5332 7.8655 0.0016 0.6847 3.5328 -0.0000 0.0000 0.0000 9.7815 -18.3371 -50.5358 18.2792 -28.5132 4.6818 -15.0067 37.5817 45.6145 0.0 0.0 0.0 -7.1250 0.0 0.0 -24.9524 -13.0269 -32.7855 -0.0000 0.0000 0.0000 -58.8141 -6.4196 54.7706 -36.3078 -45.7237 -15.7425 5.2554 6.7892 57.9321 0.0 0.0 0.0 7.1250 0.0 -0.0 88.7489 70.4367 -67.8625
8.7709 18.1790 17.1667 -181.6520 -28.5518 185.4710 0.0000 0.0000 0.0000 -22.2695 -14.3908 -7.3773 1.9048 8.6650 24.7528 1.0354 13.2397 19.1222 0.7608 -5.5704 -15.5430 0.0000 0.0000 0.0000 24.5037 8.9504 -6.9875 -3.1463 -10.9282 32.0380 -1.1962 -22.3638 23.5269 -0.0469 -1.3973 3.8428 2.2826 1.3825 7.6934 -1.0210 1.9578 -5.0638 -2.6755 0.7214 -9.6024 -0.2809 1.2274 -6.1319 -1.0292 1.7077 8.2962 -0.2039 0.7626 3.7937 -0.0000 -0.0000 0.0000 7.8267 -17.4738 -48.7289 16.7628 -26.544 3.9808 -14.2068 42.3908 46.4325 0.0 0.0 0.0 -7.1250 0.0 0.0 -24.6035 -13.7842 -32.4644 -0.0000 -0.0000 0.0000 -57.8846 -2.9231 56.2314 -35.6296 -45.2565 -15.2588 3.3088 10.0316 57.4016 0.0 0.0 0.0 7.1250 0.0 -0.0 86.6874 71.0458 -66.4508
8.7727 18.3107 17.0497 -181.5050 -30.2076 185.5520 0.0000 0.0000 0.0000 -22.5608 -14.0358 -8.1314 1.7271 8.2729 23.5461 0.8916 15.1477 18.6161 0.6109 -5.0028 -13.9165 0.0000 0.0000 0.0000 24.4271 9.7941 -7.4183 -2.9686 -10.6440 31.0885 -1.7101 -23.0155 26.6481 -0.6404 -5.1197 14.2504 2.6019 1.2725 7.7120 -1.0417 1.8473 -5.1007 -2.8618 0.6442 -9.6520 0.0586 1.5217 -6.4151 -1.4829 2.1144 8.4523 -0.3906 0.9516 3.9183 0.0000 0.0000 0.0000 6.37 -16.4375 -47.661 15.7287 -25.1514 3.5299 -14.3792 46.4718 45.7727 0.0 0.0 0.0 -7.1250 0.0 0.0 -24.6829 -13.1678 -32.4047 0.0000 0.0000 0.0000 -57.0173 0.2451 57.7286 -34.7641 -44.6429 -14.6473 2.705 11.998 57.6003 0.0 0.0 0.0 7.1250 0.0 -0.0 87.0973 71.2654 -67.1394
